<?xml version='1.0' encoding='UTF-8'?>
<!DOCTYPE svg PUBLIC "-//W3C//DTD SVG 1.0//EN" "http://www.w3.org/TR/2001/REC-SVG-20010904/DTD/svg10.dtd">
<svg viewBox="0 0 896 480" xmlns="http://www.w3.org/2000/svg" xmlns:inkspace="http://www.inkscape.org/namespaces/inkscape" xmlns:xlink="http://www.w3.org/1999/xlink">
  <defs id="defs_block">
    <filter height="1.504" id="filter_blur" inkspace:collect="always" width="1.1575" x="-0.07875" y="-0.252">
      <feGaussianBlur id="feGaussianBlur3780" inkspace:collect="always" stdDeviation="4.2" />
    </filter>
  </defs>
  <title>blockdiag</title>
  <desc>packetdiag {
  colwidth = 32

  8-15: Target SpW Address [color = LightSkyBlue ]
  16-23: ... [color = LightSkyBlue ]
  24-31: Target SpW Address [color = LightSkyBlue ]
  32-39: Target Logical Address [color = LightCoral]
  40-47: Protocol Identifier [color = LemonChiffon ]
  48-55: Instruction
  56-63: Key
  64-71: Reply Address [color = LightSkyBlue ]
  72-79: Reply Address [color = LightSkyBlue ]
  80-87: Reply Address [color = LightSkyBlue ]
  88-95: Reply Address [color = LightSkyBlue ]
  96-103: Reply Address [color = LightSkyBlue ]
  104-111: Reply Address [color = LightSkyBlue ]
  112-119: Reply Address [color = LightSkyBlue ]
  120-127: Reply Address [color = LightSkyBlue ]
  128-135: Reply Address [color = LightSkyBlue ]
  136-143: Reply Address [color = LightSkyBlue ]
  144-151: Reply Address [color = LightSkyBlue ]
  152-159: Reply Address [color = LightSkyBlue ]
  160-167: Initiator Logical Address
  168-175: Transaction Identifier(MS)
  176-183: Transaction Identifier(LS)
  184-191: Extended Address
  192-199: Address(MS)
  200-207: Address
  208-215: Address
  216-223: Address(LS)
  224-231: Data Length(MS)
  232-239: Data Length
  240-247: Data Length(LS)
  248-255: Header CRC
  256-259: EOP [color = LightCoral]
}
</desc>
  <path d="M 64 48 L 64 80" fill="none" stroke="rgb(0,0,0)" />
  <text fill="rgb(0,0,0)" font-family="sans-serif" font-size="11" font-style="normal" font-weight="normal" text-anchor="middle" textLength="6" x="64" y="42">0</text>
  <path d="M 88 64 L 88 80" fill="none" stroke="rgb(0,0,0)" />
  <path d="M 112 64 L 112 80" fill="none" stroke="rgb(0,0,0)" />
  <path d="M 136 64 L 136 80" fill="none" stroke="rgb(0,0,0)" />
  <path d="M 160 64 L 160 80" fill="none" stroke="rgb(0,0,0)" />
  <path d="M 184 64 L 184 80" fill="none" stroke="rgb(0,0,0)" />
  <path d="M 208 64 L 208 80" fill="none" stroke="rgb(0,0,0)" />
  <path d="M 232 64 L 232 80" fill="none" stroke="rgb(0,0,0)" />
  <path d="M 256 48 L 256 80" fill="none" stroke="rgb(0,0,0)" />
  <path d="M 280 64 L 280 80" fill="none" stroke="rgb(0,0,0)" />
  <path d="M 304 64 L 304 80" fill="none" stroke="rgb(0,0,0)" />
  <path d="M 328 64 L 328 80" fill="none" stroke="rgb(0,0,0)" />
  <path d="M 352 64 L 352 80" fill="none" stroke="rgb(0,0,0)" />
  <path d="M 376 64 L 376 80" fill="none" stroke="rgb(0,0,0)" />
  <path d="M 400 64 L 400 80" fill="none" stroke="rgb(0,0,0)" />
  <path d="M 424 64 L 424 80" fill="none" stroke="rgb(0,0,0)" />
  <path d="M 448 48 L 448 80" fill="none" stroke="rgb(0,0,0)" />
  <text fill="rgb(0,0,0)" font-family="sans-serif" font-size="11" font-style="normal" font-weight="normal" text-anchor="middle" textLength="12" x="448" y="42">16</text>
  <path d="M 472 64 L 472 80" fill="none" stroke="rgb(0,0,0)" />
  <path d="M 496 64 L 496 80" fill="none" stroke="rgb(0,0,0)" />
  <path d="M 520 64 L 520 80" fill="none" stroke="rgb(0,0,0)" />
  <path d="M 544 64 L 544 80" fill="none" stroke="rgb(0,0,0)" />
  <path d="M 568 64 L 568 80" fill="none" stroke="rgb(0,0,0)" />
  <path d="M 592 64 L 592 80" fill="none" stroke="rgb(0,0,0)" />
  <path d="M 616 64 L 616 80" fill="none" stroke="rgb(0,0,0)" />
  <path d="M 640 48 L 640 80" fill="none" stroke="rgb(0,0,0)" />
  <path d="M 664 64 L 664 80" fill="none" stroke="rgb(0,0,0)" />
  <path d="M 688 64 L 688 80" fill="none" stroke="rgb(0,0,0)" />
  <path d="M 712 64 L 712 80" fill="none" stroke="rgb(0,0,0)" />
  <path d="M 736 64 L 736 80" fill="none" stroke="rgb(0,0,0)" />
  <path d="M 760 64 L 760 80" fill="none" stroke="rgb(0,0,0)" />
  <path d="M 784 64 L 784 80" fill="none" stroke="rgb(0,0,0)" />
  <path d="M 808 64 L 808 80" fill="none" stroke="rgb(0,0,0)" />
  <path d="M 832 48 L 832 80" fill="none" stroke="rgb(0,0,0)" />
  <text fill="rgb(0,0,0)" font-family="sans-serif" font-size="11" font-style="normal" font-weight="normal" text-anchor="middle" textLength="12" x="832" y="42">32</text>
  <rect fill="rgb(135,206,250)" height="40" stroke="rgb(135,206,250)" width="192" x="256" y="80" />
  <path d="M 256 80 L 448 80" fill="none" stroke="rgb(0,0,0)" />
  <path d="M 448 80 L 448 120" fill="none" stroke="rgb(0,0,0)" />
  <path d="M 448 120 L 256 120" fill="none" stroke="rgb(0,0,0)" />
  <path d="M 256 120 L 256 80" fill="none" stroke="rgb(0,0,0)" />
  <text fill="rgb(0,0,0)" font-family="sans-serif" font-size="11" font-style="normal" font-weight="normal" text-anchor="middle" textLength="108" x="352" y="106">Target SpW Address</text>
  <rect fill="rgb(135,206,250)" height="40" stroke="rgb(135,206,250)" width="192" x="448" y="80" />
  <path d="M 448 80 L 640 80" fill="none" stroke="rgb(0,0,0)" />
  <path d="M 640 80 L 640 120" fill="none" stroke="rgb(0,0,0)" />
  <path d="M 640 120 L 448 120" fill="none" stroke="rgb(0,0,0)" />
  <path d="M 448 120 L 448 80" fill="none" stroke="rgb(0,0,0)" />
  <text fill="rgb(0,0,0)" font-family="sans-serif" font-size="11" font-style="normal" font-weight="normal" text-anchor="middle" textLength="18" x="544" y="106">...</text>
  <rect fill="rgb(135,206,250)" height="40" stroke="rgb(135,206,250)" width="192" x="640" y="80" />
  <path d="M 640 80 L 832 80" fill="none" stroke="rgb(0,0,0)" />
  <path d="M 832 80 L 832 120" fill="none" stroke="rgb(0,0,0)" />
  <path d="M 832 120 L 640 120" fill="none" stroke="rgb(0,0,0)" />
  <path d="M 640 120 L 640 80" fill="none" stroke="rgb(0,0,0)" />
  <text fill="rgb(0,0,0)" font-family="sans-serif" font-size="11" font-style="normal" font-weight="normal" text-anchor="middle" textLength="108" x="736" y="106">Target SpW Address</text>
  <rect fill="rgb(240,128,128)" height="40" stroke="rgb(240,128,128)" width="192" x="64" y="120" />
  <path d="M 64 120 L 256 120" fill="none" stroke="rgb(0,0,0)" />
  <path d="M 256 120 L 256 160" fill="none" stroke="rgb(0,0,0)" />
  <path d="M 256 160 L 64 160" fill="none" stroke="rgb(0,0,0)" />
  <path d="M 64 160 L 64 120" fill="none" stroke="rgb(0,0,0)" />
  <text fill="rgb(0,0,0)" font-family="sans-serif" font-size="11" font-style="normal" font-weight="normal" text-anchor="middle" textLength="132" x="160" y="146">Target Logical Address</text>
  <rect fill="rgb(255,250,205)" height="40" stroke="rgb(255,250,205)" width="192" x="256" y="120" />
  <path d="M 256 120 L 448 120" fill="none" stroke="rgb(0,0,0)" />
  <path d="M 448 120 L 448 160" fill="none" stroke="rgb(0,0,0)" />
  <path d="M 448 160 L 256 160" fill="none" stroke="rgb(0,0,0)" />
  <path d="M 256 160 L 256 120" fill="none" stroke="rgb(0,0,0)" />
  <text fill="rgb(0,0,0)" font-family="sans-serif" font-size="11" font-style="normal" font-weight="normal" text-anchor="middle" textLength="114" x="352" y="146">Protocol Identifier</text>
  <rect fill="rgb(255,255,255)" height="40" stroke="rgb(255,255,255)" width="192" x="448" y="120" />
  <path d="M 448 120 L 640 120" fill="none" stroke="rgb(0,0,0)" />
  <path d="M 640 120 L 640 160" fill="none" stroke="rgb(0,0,0)" />
  <path d="M 640 160 L 448 160" fill="none" stroke="rgb(0,0,0)" />
  <path d="M 448 160 L 448 120" fill="none" stroke="rgb(0,0,0)" />
  <text fill="rgb(0,0,0)" font-family="sans-serif" font-size="11" font-style="normal" font-weight="normal" text-anchor="middle" textLength="66" x="544" y="146">Instruction</text>
  <rect fill="rgb(255,255,255)" height="40" stroke="rgb(255,255,255)" width="192" x="640" y="120" />
  <path d="M 640 120 L 832 120" fill="none" stroke="rgb(0,0,0)" />
  <path d="M 832 120 L 832 160" fill="none" stroke="rgb(0,0,0)" />
  <path d="M 832 160 L 640 160" fill="none" stroke="rgb(0,0,0)" />
  <path d="M 640 160 L 640 120" fill="none" stroke="rgb(0,0,0)" />
  <text fill="rgb(0,0,0)" font-family="sans-serif" font-size="11" font-style="normal" font-weight="normal" text-anchor="middle" textLength="18" x="736" y="146">Key</text>
  <rect fill="rgb(135,206,250)" height="40" stroke="rgb(135,206,250)" width="192" x="64" y="160" />
  <path d="M 64 160 L 256 160" fill="none" stroke="rgb(0,0,0)" />
  <path d="M 256 160 L 256 200" fill="none" stroke="rgb(0,0,0)" />
  <path d="M 256 200 L 64 200" fill="none" stroke="rgb(0,0,0)" />
  <path d="M 64 200 L 64 160" fill="none" stroke="rgb(0,0,0)" />
  <text fill="rgb(0,0,0)" font-family="sans-serif" font-size="11" font-style="normal" font-weight="normal" text-anchor="middle" textLength="78" x="160" y="186">Reply Address</text>
  <rect fill="rgb(135,206,250)" height="40" stroke="rgb(135,206,250)" width="192" x="256" y="160" />
  <path d="M 256 160 L 448 160" fill="none" stroke="rgb(0,0,0)" />
  <path d="M 448 160 L 448 200" fill="none" stroke="rgb(0,0,0)" />
  <path d="M 448 200 L 256 200" fill="none" stroke="rgb(0,0,0)" />
  <path d="M 256 200 L 256 160" fill="none" stroke="rgb(0,0,0)" />
  <text fill="rgb(0,0,0)" font-family="sans-serif" font-size="11" font-style="normal" font-weight="normal" text-anchor="middle" textLength="78" x="352" y="186">Reply Address</text>
  <rect fill="rgb(135,206,250)" height="40" stroke="rgb(135,206,250)" width="192" x="448" y="160" />
  <path d="M 448 160 L 640 160" fill="none" stroke="rgb(0,0,0)" />
  <path d="M 640 160 L 640 200" fill="none" stroke="rgb(0,0,0)" />
  <path d="M 640 200 L 448 200" fill="none" stroke="rgb(0,0,0)" />
  <path d="M 448 200 L 448 160" fill="none" stroke="rgb(0,0,0)" />
  <text fill="rgb(0,0,0)" font-family="sans-serif" font-size="11" font-style="normal" font-weight="normal" text-anchor="middle" textLength="78" x="544" y="186">Reply Address</text>
  <rect fill="rgb(135,206,250)" height="40" stroke="rgb(135,206,250)" width="192" x="640" y="160" />
  <path d="M 640 160 L 832 160" fill="none" stroke="rgb(0,0,0)" />
  <path d="M 832 160 L 832 200" fill="none" stroke="rgb(0,0,0)" />
  <path d="M 832 200 L 640 200" fill="none" stroke="rgb(0,0,0)" />
  <path d="M 640 200 L 640 160" fill="none" stroke="rgb(0,0,0)" />
  <text fill="rgb(0,0,0)" font-family="sans-serif" font-size="11" font-style="normal" font-weight="normal" text-anchor="middle" textLength="78" x="736" y="186">Reply Address</text>
  <rect fill="rgb(135,206,250)" height="40" stroke="rgb(135,206,250)" width="192" x="64" y="200" />
  <path d="M 64 200 L 256 200" fill="none" stroke="rgb(0,0,0)" />
  <path d="M 256 200 L 256 240" fill="none" stroke="rgb(0,0,0)" />
  <path d="M 256 240 L 64 240" fill="none" stroke="rgb(0,0,0)" />
  <path d="M 64 240 L 64 200" fill="none" stroke="rgb(0,0,0)" />
  <text fill="rgb(0,0,0)" font-family="sans-serif" font-size="11" font-style="normal" font-weight="normal" text-anchor="middle" textLength="78" x="160" y="226">Reply Address</text>
  <rect fill="rgb(135,206,250)" height="40" stroke="rgb(135,206,250)" width="192" x="256" y="200" />
  <path d="M 256 200 L 448 200" fill="none" stroke="rgb(0,0,0)" />
  <path d="M 448 200 L 448 240" fill="none" stroke="rgb(0,0,0)" />
  <path d="M 448 240 L 256 240" fill="none" stroke="rgb(0,0,0)" />
  <path d="M 256 240 L 256 200" fill="none" stroke="rgb(0,0,0)" />
  <text fill="rgb(0,0,0)" font-family="sans-serif" font-size="11" font-style="normal" font-weight="normal" text-anchor="middle" textLength="78" x="352" y="226">Reply Address</text>
  <rect fill="rgb(135,206,250)" height="40" stroke="rgb(135,206,250)" width="192" x="448" y="200" />
  <path d="M 448 200 L 640 200" fill="none" stroke="rgb(0,0,0)" />
  <path d="M 640 200 L 640 240" fill="none" stroke="rgb(0,0,0)" />
  <path d="M 640 240 L 448 240" fill="none" stroke="rgb(0,0,0)" />
  <path d="M 448 240 L 448 200" fill="none" stroke="rgb(0,0,0)" />
  <text fill="rgb(0,0,0)" font-family="sans-serif" font-size="11" font-style="normal" font-weight="normal" text-anchor="middle" textLength="78" x="544" y="226">Reply Address</text>
  <rect fill="rgb(135,206,250)" height="40" stroke="rgb(135,206,250)" width="192" x="640" y="200" />
  <path d="M 640 200 L 832 200" fill="none" stroke="rgb(0,0,0)" />
  <path d="M 832 200 L 832 240" fill="none" stroke="rgb(0,0,0)" />
  <path d="M 832 240 L 640 240" fill="none" stroke="rgb(0,0,0)" />
  <path d="M 640 240 L 640 200" fill="none" stroke="rgb(0,0,0)" />
  <text fill="rgb(0,0,0)" font-family="sans-serif" font-size="11" font-style="normal" font-weight="normal" text-anchor="middle" textLength="78" x="736" y="226">Reply Address</text>
  <rect fill="rgb(135,206,250)" height="40" stroke="rgb(135,206,250)" width="192" x="64" y="240" />
  <path d="M 64 240 L 256 240" fill="none" stroke="rgb(0,0,0)" />
  <path d="M 256 240 L 256 280" fill="none" stroke="rgb(0,0,0)" />
  <path d="M 256 280 L 64 280" fill="none" stroke="rgb(0,0,0)" />
  <path d="M 64 280 L 64 240" fill="none" stroke="rgb(0,0,0)" />
  <text fill="rgb(0,0,0)" font-family="sans-serif" font-size="11" font-style="normal" font-weight="normal" text-anchor="middle" textLength="78" x="160" y="266">Reply Address</text>
  <rect fill="rgb(135,206,250)" height="40" stroke="rgb(135,206,250)" width="192" x="256" y="240" />
  <path d="M 256 240 L 448 240" fill="none" stroke="rgb(0,0,0)" />
  <path d="M 448 240 L 448 280" fill="none" stroke="rgb(0,0,0)" />
  <path d="M 448 280 L 256 280" fill="none" stroke="rgb(0,0,0)" />
  <path d="M 256 280 L 256 240" fill="none" stroke="rgb(0,0,0)" />
  <text fill="rgb(0,0,0)" font-family="sans-serif" font-size="11" font-style="normal" font-weight="normal" text-anchor="middle" textLength="78" x="352" y="266">Reply Address</text>
  <rect fill="rgb(135,206,250)" height="40" stroke="rgb(135,206,250)" width="192" x="448" y="240" />
  <path d="M 448 240 L 640 240" fill="none" stroke="rgb(0,0,0)" />
  <path d="M 640 240 L 640 280" fill="none" stroke="rgb(0,0,0)" />
  <path d="M 640 280 L 448 280" fill="none" stroke="rgb(0,0,0)" />
  <path d="M 448 280 L 448 240" fill="none" stroke="rgb(0,0,0)" />
  <text fill="rgb(0,0,0)" font-family="sans-serif" font-size="11" font-style="normal" font-weight="normal" text-anchor="middle" textLength="78" x="544" y="266">Reply Address</text>
  <rect fill="rgb(135,206,250)" height="40" stroke="rgb(135,206,250)" width="192" x="640" y="240" />
  <path d="M 640 240 L 832 240" fill="none" stroke="rgb(0,0,0)" />
  <path d="M 832 240 L 832 280" fill="none" stroke="rgb(0,0,0)" />
  <path d="M 832 280 L 640 280" fill="none" stroke="rgb(0,0,0)" />
  <path d="M 640 280 L 640 240" fill="none" stroke="rgb(0,0,0)" />
  <text fill="rgb(0,0,0)" font-family="sans-serif" font-size="11" font-style="normal" font-weight="normal" text-anchor="middle" textLength="78" x="736" y="266">Reply Address</text>
  <rect fill="rgb(255,255,255)" height="40" stroke="rgb(255,255,255)" width="192" x="64" y="280" />
  <path d="M 64 280 L 256 280" fill="none" stroke="rgb(0,0,0)" />
  <path d="M 256 280 L 256 320" fill="none" stroke="rgb(0,0,0)" />
  <path d="M 256 320 L 64 320" fill="none" stroke="rgb(0,0,0)" />
  <path d="M 64 320 L 64 280" fill="none" stroke="rgb(0,0,0)" />
  <text fill="rgb(0,0,0)" font-family="sans-serif" font-size="11" font-style="normal" font-weight="normal" text-anchor="middle" textLength="150" x="160" y="306">Initiator Logical Address</text>
  <rect fill="rgb(255,255,255)" height="40" stroke="rgb(255,255,255)" width="192" x="256" y="280" />
  <path d="M 256 280 L 448 280" fill="none" stroke="rgb(0,0,0)" />
  <path d="M 448 280 L 448 320" fill="none" stroke="rgb(0,0,0)" />
  <path d="M 448 320 L 256 320" fill="none" stroke="rgb(0,0,0)" />
  <path d="M 256 320 L 256 280" fill="none" stroke="rgb(0,0,0)" />
  <text fill="rgb(0,0,0)" font-family="sans-serif" font-size="11" font-style="normal" font-weight="normal" text-anchor="middle" textLength="156" x="352" y="306">Transaction Identifier(MS)</text>
  <rect fill="rgb(255,255,255)" height="40" stroke="rgb(255,255,255)" width="192" x="448" y="280" />
  <path d="M 448 280 L 640 280" fill="none" stroke="rgb(0,0,0)" />
  <path d="M 640 280 L 640 320" fill="none" stroke="rgb(0,0,0)" />
  <path d="M 640 320 L 448 320" fill="none" stroke="rgb(0,0,0)" />
  <path d="M 448 320 L 448 280" fill="none" stroke="rgb(0,0,0)" />
  <text fill="rgb(0,0,0)" font-family="sans-serif" font-size="11" font-style="normal" font-weight="normal" text-anchor="middle" textLength="156" x="544" y="306">Transaction Identifier(LS)</text>
  <rect fill="rgb(255,255,255)" height="40" stroke="rgb(255,255,255)" width="192" x="640" y="280" />
  <path d="M 640 280 L 832 280" fill="none" stroke="rgb(0,0,0)" />
  <path d="M 832 280 L 832 320" fill="none" stroke="rgb(0,0,0)" />
  <path d="M 832 320 L 640 320" fill="none" stroke="rgb(0,0,0)" />
  <path d="M 640 320 L 640 280" fill="none" stroke="rgb(0,0,0)" />
  <text fill="rgb(0,0,0)" font-family="sans-serif" font-size="11" font-style="normal" font-weight="normal" text-anchor="middle" textLength="96" x="736" y="306">Extended Address</text>
  <rect fill="rgb(255,255,255)" height="40" stroke="rgb(255,255,255)" width="192" x="64" y="320" />
  <path d="M 64 320 L 256 320" fill="none" stroke="rgb(0,0,0)" />
  <path d="M 256 320 L 256 360" fill="none" stroke="rgb(0,0,0)" />
  <path d="M 256 360 L 64 360" fill="none" stroke="rgb(0,0,0)" />
  <path d="M 64 360 L 64 320" fill="none" stroke="rgb(0,0,0)" />
  <text fill="rgb(0,0,0)" font-family="sans-serif" font-size="11" font-style="normal" font-weight="normal" text-anchor="middle" textLength="66" x="160" y="346">Address(MS)</text>
  <rect fill="rgb(255,255,255)" height="40" stroke="rgb(255,255,255)" width="192" x="256" y="320" />
  <path d="M 256 320 L 448 320" fill="none" stroke="rgb(0,0,0)" />
  <path d="M 448 320 L 448 360" fill="none" stroke="rgb(0,0,0)" />
  <path d="M 448 360 L 256 360" fill="none" stroke="rgb(0,0,0)" />
  <path d="M 256 360 L 256 320" fill="none" stroke="rgb(0,0,0)" />
  <text fill="rgb(0,0,0)" font-family="sans-serif" font-size="11" font-style="normal" font-weight="normal" text-anchor="middle" textLength="42" x="352" y="346">Address</text>
  <rect fill="rgb(255,255,255)" height="40" stroke="rgb(255,255,255)" width="192" x="448" y="320" />
  <path d="M 448 320 L 640 320" fill="none" stroke="rgb(0,0,0)" />
  <path d="M 640 320 L 640 360" fill="none" stroke="rgb(0,0,0)" />
  <path d="M 640 360 L 448 360" fill="none" stroke="rgb(0,0,0)" />
  <path d="M 448 360 L 448 320" fill="none" stroke="rgb(0,0,0)" />
  <text fill="rgb(0,0,0)" font-family="sans-serif" font-size="11" font-style="normal" font-weight="normal" text-anchor="middle" textLength="42" x="544" y="346">Address</text>
  <rect fill="rgb(255,255,255)" height="40" stroke="rgb(255,255,255)" width="192" x="640" y="320" />
  <path d="M 640 320 L 832 320" fill="none" stroke="rgb(0,0,0)" />
  <path d="M 832 320 L 832 360" fill="none" stroke="rgb(0,0,0)" />
  <path d="M 832 360 L 640 360" fill="none" stroke="rgb(0,0,0)" />
  <path d="M 640 360 L 640 320" fill="none" stroke="rgb(0,0,0)" />
  <text fill="rgb(0,0,0)" font-family="sans-serif" font-size="11" font-style="normal" font-weight="normal" text-anchor="middle" textLength="66" x="736" y="346">Address(LS)</text>
  <rect fill="rgb(255,255,255)" height="40" stroke="rgb(255,255,255)" width="192" x="64" y="360" />
  <path d="M 64 360 L 256 360" fill="none" stroke="rgb(0,0,0)" />
  <path d="M 256 360 L 256 400" fill="none" stroke="rgb(0,0,0)" />
  <path d="M 256 400 L 64 400" fill="none" stroke="rgb(0,0,0)" />
  <path d="M 64 400 L 64 360" fill="none" stroke="rgb(0,0,0)" />
  <text fill="rgb(0,0,0)" font-family="sans-serif" font-size="11" font-style="normal" font-weight="normal" text-anchor="middle" textLength="90" x="160" y="386">Data Length(MS)</text>
  <rect fill="rgb(255,255,255)" height="40" stroke="rgb(255,255,255)" width="192" x="256" y="360" />
  <path d="M 256 360 L 448 360" fill="none" stroke="rgb(0,0,0)" />
  <path d="M 448 360 L 448 400" fill="none" stroke="rgb(0,0,0)" />
  <path d="M 448 400 L 256 400" fill="none" stroke="rgb(0,0,0)" />
  <path d="M 256 400 L 256 360" fill="none" stroke="rgb(0,0,0)" />
  <text fill="rgb(0,0,0)" font-family="sans-serif" font-size="11" font-style="normal" font-weight="normal" text-anchor="middle" textLength="66" x="352" y="386">Data Length</text>
  <rect fill="rgb(255,255,255)" height="40" stroke="rgb(255,255,255)" width="192" x="448" y="360" />
  <path d="M 448 360 L 640 360" fill="none" stroke="rgb(0,0,0)" />
  <path d="M 640 360 L 640 400" fill="none" stroke="rgb(0,0,0)" />
  <path d="M 640 400 L 448 400" fill="none" stroke="rgb(0,0,0)" />
  <path d="M 448 400 L 448 360" fill="none" stroke="rgb(0,0,0)" />
  <text fill="rgb(0,0,0)" font-family="sans-serif" font-size="11" font-style="normal" font-weight="normal" text-anchor="middle" textLength="90" x="544" y="386">Data Length(LS)</text>
  <rect fill="rgb(255,255,255)" height="40" stroke="rgb(255,255,255)" width="192" x="640" y="360" />
  <path d="M 640 360 L 832 360" fill="none" stroke="rgb(0,0,0)" />
  <path d="M 832 360 L 832 400" fill="none" stroke="rgb(0,0,0)" />
  <path d="M 832 400 L 640 400" fill="none" stroke="rgb(0,0,0)" />
  <path d="M 640 400 L 640 360" fill="none" stroke="rgb(0,0,0)" />
  <text fill="rgb(0,0,0)" font-family="sans-serif" font-size="11" font-style="normal" font-weight="normal" text-anchor="middle" textLength="60" x="736" y="386">Header CRC</text>
  <rect fill="rgb(240,128,128)" height="40" stroke="rgb(240,128,128)" width="96" x="64" y="400" />
  <path d="M 64 400 L 160 400" fill="none" stroke="rgb(0,0,0)" />
  <path d="M 160 400 L 160 440" fill="none" stroke="rgb(0,0,0)" />
  <path d="M 160 440 L 64 440" fill="none" stroke="rgb(0,0,0)" />
  <path d="M 64 440 L 64 400" fill="none" stroke="rgb(0,0,0)" />
  <text fill="rgb(0,0,0)" font-family="sans-serif" font-size="11" font-style="normal" font-weight="normal" text-anchor="middle" textLength="18" x="112" y="426">EOP</text>
</svg>
